<svg width="187" height="111" viewBox="0 0 187 111" fill="none" xmlns="http://www.w3.org/2000/svg">
<path d="M116.359 72.7977C115.434 72.2947 114.687 71.68 114.118 70.9535C113.555 70.2302 113.196 69.4393 113.04 68.5808C112.893 67.7197 112.98 66.8411 113.3 65.9452L115.678 66.8051C115.458 67.6567 115.527 68.4451 115.884 69.1703C116.247 69.8987 116.809 70.4698 117.57 70.8836C118.021 71.1287 118.484 71.2892 118.959 71.3651C119.433 71.441 119.867 71.4111 120.26 71.2754C120.658 71.1428 120.964 70.8803 121.177 70.4879C121.272 70.3121 121.331 70.1351 121.352 69.9569C121.376 69.7727 121.361 69.5903 121.308 69.4095C121.26 69.2318 121.171 69.0468 121.04 68.8544C120.919 68.6593 120.76 68.463 120.564 68.2653L117.821 65.5225C117.584 65.2877 117.338 65.0138 117.084 64.7008C116.838 64.3851 116.634 64.0276 116.471 63.6283C116.318 63.2263 116.25 62.7869 116.266 62.3101C116.291 61.8307 116.455 61.3128 116.757 60.7563C117.2 59.9421 117.776 59.3711 118.485 59.0434C119.203 58.713 119.986 58.5995 120.833 58.703C121.685 58.8097 122.537 59.0984 123.389 59.5691C124.253 60.0461 124.945 60.6156 125.465 61.2778C125.989 61.9341 126.329 62.6617 126.487 63.4606C126.645 64.2595 126.606 65.0994 126.37 65.9804L123.879 65.139C124.027 64.6429 124.051 64.1664 123.95 63.7095C123.859 63.2499 123.664 62.8331 123.367 62.459C123.075 62.088 122.716 61.7789 122.289 61.5316C121.87 61.2966 121.443 61.1477 121.006 61.0851C120.579 61.0197 120.187 61.0496 119.831 61.1746C119.48 61.3029 119.216 61.531 119.038 61.859C118.869 62.1694 118.824 62.4752 118.903 62.7762C118.986 63.0714 119.133 63.3523 119.344 63.6191C119.565 63.8832 119.798 64.1313 120.044 64.3635L121.967 66.2281C122.233 66.4788 122.521 66.7795 122.831 67.1302C123.141 67.4809 123.407 67.8793 123.627 68.3253C123.847 68.7714 123.96 69.2615 123.966 69.7957C123.977 70.333 123.811 70.918 123.467 71.5506C123.111 72.2067 122.66 72.7088 122.114 73.0571C121.577 73.4027 120.988 73.6137 120.347 73.6903C119.706 73.7668 119.042 73.7247 118.356 73.564C117.675 73.4065 117.009 73.151 116.359 72.7977ZM126.409 77.9179L132.206 67.2514L128.111 65.0262L129.19 63.0405L139.497 68.6418L138.417 70.6274L134.323 68.4022L128.526 79.0687L126.409 77.9179ZM138.978 85.0906C137.97 84.5431 137.194 83.8558 136.65 83.0287C136.111 82.2048 135.827 81.3032 135.798 80.3237C135.775 79.3474 136.036 78.3584 136.58 77.3568L140.892 69.4228L143.045 70.5704L138.752 78.4692C138.495 78.9437 138.343 79.4113 138.297 79.8722C138.258 80.3362 138.304 80.7748 138.436 81.188C138.571 81.5953 138.781 81.9635 139.065 82.2924C139.349 82.6213 139.681 82.8892 140.062 83.0961C140.454 83.3094 140.863 83.4442 141.288 83.5005C141.721 83.5541 142.146 83.5269 142.561 83.4188C142.98 83.3048 143.37 83.1033 143.732 82.8144C144.094 82.5255 144.402 82.1467 144.657 81.6781L148.95 73.7793L151.093 74.9445L146.772 82.896C146.228 83.8976 145.537 84.6526 144.699 85.1609C143.867 85.6724 142.956 85.9247 141.966 85.9177C140.981 85.9139 139.985 85.6382 138.978 85.0906ZM146.673 88.9311L153.549 76.2789L157.582 78.4707C157.687 78.528 157.893 78.6439 158.201 78.8185C158.514 78.9963 158.807 79.1823 159.081 79.3767C160.013 80.0499 160.665 80.8672 161.038 81.8286C161.42 82.7873 161.544 83.8148 161.411 84.911C161.278 86.0073 160.92 87.0914 160.338 88.1633C159.755 89.2352 159.04 90.1251 158.193 90.833C157.345 91.5408 156.414 91.9982 155.398 92.2051C154.392 92.4094 153.353 92.3037 152.281 91.8882C151.975 91.7674 151.662 91.6239 151.343 91.4579C151.023 91.2918 150.811 91.1802 150.705 91.1229L146.673 88.9311ZM149.909 88.1065L151.789 89.1284C151.965 89.2239 152.191 89.339 152.467 89.4737C152.748 89.6116 153.006 89.7174 153.239 89.791C153.897 90.0044 154.528 90.0021 155.132 89.7841C155.736 89.5661 156.29 89.2032 156.794 88.6954C157.303 88.1908 157.738 87.6075 158.097 86.9456C158.47 86.2603 158.729 85.5666 158.876 84.8646C159.022 84.1626 159.016 83.5031 158.858 82.8862C158.706 82.2724 158.367 81.7507 157.842 81.3211C157.657 81.1596 157.428 81.0011 157.156 80.8457C156.893 80.6875 156.673 80.5607 156.498 80.4652L154.617 79.4433L149.909 88.1065ZM159.152 95.7137L166.029 83.0615L168.146 84.2123L161.27 96.8645L159.152 95.7137ZM169.109 101.467C167.844 100.779 166.91 99.9147 166.307 98.8738C165.708 97.8271 165.434 96.6767 165.486 95.4225C165.543 94.1716 165.927 92.893 166.637 91.5868C167.347 90.2806 168.211 89.263 169.229 88.5341C170.254 87.8085 171.366 87.4154 172.568 87.3551C173.772 87.2889 175.007 87.5996 176.272 88.2872C177.537 88.9748 178.47 89.842 179.069 90.8887C179.678 91.9328 179.954 93.0803 179.896 94.3312C179.844 95.5854 179.463 96.8655 178.753 98.1718C178.043 99.478 177.176 100.494 176.152 101.22C175.134 101.948 174.019 102.344 172.809 102.407C171.608 102.468 170.375 102.154 169.109 101.467ZM170.193 99.4721C171.039 99.9395 171.847 100.136 172.616 100.061C173.392 99.9886 174.107 99.6835 174.764 99.1451C175.427 98.6099 176.01 97.8796 176.513 96.9541C177.016 96.0286 177.308 95.1481 177.391 94.3127C177.482 93.4745 177.347 92.7107 176.986 92.0212C176.63 91.3348 176.031 90.755 175.188 90.2817C174.342 89.8142 173.534 89.6181 172.765 89.6932C171.996 89.7683 171.28 90.0735 170.617 90.6087C169.96 91.147 169.38 91.879 168.878 92.8045C168.375 93.7299 168.077 94.6117 167.986 95.4499C167.898 96.2821 168.032 97.0415 168.387 97.7278C168.748 98.4173 169.35 98.9988 170.193 99.4721Z" fill="#EB4E39"/>
<path d="M28.7341 95.2892C26.7275 95.2892 25.0428 94.8459 23.6801 93.9592C22.3175 93.0632 21.2908 91.8265 20.6001 90.2492C19.9095 88.6719 19.5641 86.8519 19.5641 84.7892C19.5641 82.7265 19.9095 80.9065 20.6001 79.3292C21.2908 77.7519 22.3175 76.5199 23.6801 75.6332C25.0428 74.7372 26.7275 74.2892 28.7341 74.2892C31.0768 74.2892 32.9761 74.8959 34.4321 76.1092C35.8975 77.3225 36.8915 78.9465 37.4141 80.9812L35.7481 81.3872C35.3188 79.6979 34.5161 78.3585 33.3401 77.3692C32.1735 76.3705 30.6381 75.8712 28.7341 75.8712C27.0821 75.8712 25.7055 76.2492 24.6041 77.0052C23.5121 77.7612 22.6861 78.8112 22.1261 80.1552C21.5755 81.4992 21.2955 83.0439 21.2861 84.7892C21.2675 86.5345 21.5335 88.0792 22.0841 89.4232C22.6441 90.7579 23.4795 91.8079 24.5901 92.5732C25.7008 93.3292 27.0821 93.7072 28.7341 93.7072C30.6381 93.7072 32.1735 93.2079 33.3401 92.2092C34.5161 91.2105 35.3188 89.8712 35.7481 88.1912L37.4141 88.5972C36.8915 90.6319 35.8975 92.2559 34.4321 93.4692C32.9761 94.6825 31.0768 95.2892 28.7341 95.2892ZM51.555 94.8692V87.0012C51.555 86.0492 51.457 85.1999 51.261 84.4532C51.0743 83.7065 50.785 83.0719 50.393 82.5492C50.0103 82.0265 49.525 81.6299 48.937 81.3592C48.3583 81.0885 47.6723 80.9532 46.879 80.9532C46.0577 80.9532 45.3437 81.0979 44.737 81.3872C44.1397 81.6672 43.645 82.0639 43.253 82.5772C42.8703 83.0905 42.581 83.7019 42.385 84.4112C42.1983 85.1112 42.105 85.8765 42.105 86.7072L40.831 86.5532C40.831 84.9199 41.1063 83.5759 41.657 82.5212C42.217 81.4572 42.9683 80.6732 43.911 80.1692C44.8537 79.6559 45.913 79.3992 47.089 79.3992C47.9197 79.3992 48.6617 79.5205 49.315 79.7632C49.9777 80.0059 50.5517 80.3512 51.037 80.7992C51.5223 81.2379 51.9237 81.7605 52.241 82.3672C52.5583 82.9645 52.7917 83.6225 52.941 84.3412C53.0997 85.0599 53.179 85.8112 53.179 86.5952V94.8692H51.555ZM40.481 94.8692V74.7092H41.951V86.3572H42.105V94.8692H40.481ZM63.0072 95.2892C61.5045 95.2892 60.2305 94.9485 59.1852 94.2672C58.1399 93.5859 57.3419 92.6432 56.7912 91.4392C56.2405 90.2352 55.9652 88.8492 55.9652 87.2812C55.9652 85.7039 56.2452 84.3179 56.8052 83.1232C57.3652 81.9192 58.1679 80.9859 59.2132 80.3232C60.2679 79.6605 61.5325 79.3292 63.0072 79.3292C64.5099 79.3292 65.7839 79.6699 66.8292 80.3512C67.8839 81.0232 68.6819 81.9565 69.2232 83.1512C69.7739 84.3459 70.0492 85.7225 70.0492 87.2812C70.0492 88.8772 69.7739 90.2772 69.2232 91.4812C68.6725 92.6759 67.8699 93.6092 66.8152 94.2812C65.7605 94.9532 64.4912 95.2892 63.0072 95.2892ZM63.0072 93.7212C64.7899 93.7212 66.1199 93.1239 66.9972 91.9292C67.8839 90.7345 68.3272 89.1852 68.3272 87.2812C68.3272 85.3399 67.8839 83.7905 66.9972 82.6332C66.1105 81.4759 64.7805 80.8972 63.0072 80.8972C61.8032 80.8972 60.8092 81.1725 60.0252 81.7232C59.2412 82.2645 58.6532 83.0159 58.2612 83.9772C57.8785 84.9292 57.6872 86.0305 57.6872 87.2812C57.6872 89.2225 58.1352 90.7812 59.0312 91.9572C59.9365 93.1332 61.2619 93.7212 63.0072 93.7212ZM73.4094 94.8692V74.2892H75.0194V94.8692H73.4094ZM79.5071 76.6972V74.6392H81.1171V76.6972H79.5071ZM79.5071 94.8692V79.7492H81.1171V94.8692H79.5071ZM91.9467 95.2892C90.5841 95.2892 89.4314 94.9345 88.4887 94.2252C87.5461 93.5159 86.8274 92.5592 86.3327 91.3552C85.8381 90.1512 85.5907 88.7932 85.5907 87.2812C85.5907 85.7599 85.8381 84.4019 86.3327 83.2072C86.8274 82.0032 87.5601 81.0559 88.5307 80.3652C89.5014 79.6745 90.6914 79.3292 92.1007 79.3292C93.4727 79.3292 94.6441 79.6792 95.6147 80.3792C96.5854 81.0792 97.3227 82.0312 97.8267 83.2352C98.3401 84.4392 98.5967 85.7879 98.5967 87.2812C98.5967 88.7932 98.3354 90.1559 97.8127 91.3692C97.2994 92.5732 96.5481 93.5299 95.5587 94.2392C94.5787 94.9392 93.3747 95.2892 91.9467 95.2892ZM85.3247 94.8692V74.7092H86.9347V83.2212H86.7947V94.8692H85.3247ZM91.8487 93.7492C92.9594 93.7492 93.8834 93.4645 94.6207 92.8952C95.3674 92.3259 95.9274 91.5559 96.3007 90.5852C96.6834 89.6052 96.8747 88.5039 96.8747 87.2812C96.8747 86.0679 96.6881 84.9805 96.3147 84.0192C95.9507 83.0485 95.3954 82.2832 94.6487 81.7232C93.9114 81.1539 92.9687 80.8692 91.8207 80.8692C90.7101 80.8692 89.7814 81.1445 89.0347 81.6952C88.2881 82.2365 87.7281 82.9925 87.3547 83.9632C86.9814 84.9339 86.7947 86.0399 86.7947 87.2812C86.7947 88.5132 86.9767 89.6192 87.3407 90.5992C87.7141 91.5699 88.2741 92.3399 89.0207 92.9092C89.7767 93.4692 90.7194 93.7492 91.8487 93.7492ZM101.676 94.8692V74.7092H103.3V87.0292L110.454 79.7492H112.708L105.218 87.3092L113.772 94.8692H111.266L103.3 87.5892V94.8692H101.676ZM119.552 95.2892C118.385 95.2892 117.415 95.0839 116.64 94.6732C115.875 94.2625 115.301 93.7212 114.918 93.0492C114.535 92.3679 114.344 91.6305 114.344 90.8372C114.344 89.9785 114.521 89.2599 114.876 88.6812C115.24 88.1025 115.721 87.6359 116.318 87.2812C116.925 86.9265 117.592 86.6605 118.32 86.4832C119.151 86.2965 120.047 86.1379 121.008 86.0072C121.969 85.8672 122.884 85.7459 123.752 85.6432C124.629 85.5405 125.343 85.4519 125.894 85.3772L125.306 85.7272C125.343 84.0939 125.035 82.8805 124.382 82.0872C123.738 81.2845 122.599 80.8832 120.966 80.8832C119.818 80.8832 118.871 81.1445 118.124 81.6672C117.387 82.1805 116.869 82.9785 116.57 84.0612L114.918 83.5992C115.263 82.2272 115.959 81.1725 117.004 80.4352C118.049 79.6979 119.389 79.3292 121.022 79.3292C122.413 79.3292 123.579 79.5999 124.522 80.1412C125.474 80.6825 126.137 81.4432 126.51 82.4232C126.669 82.8245 126.776 83.2959 126.832 83.8372C126.888 84.3692 126.916 84.9059 126.916 85.4472V94.8692H125.446V90.8932L125.992 91.0332C125.535 92.3959 124.737 93.4459 123.598 94.1832C122.459 94.9205 121.111 95.2892 119.552 95.2892ZM119.636 93.8052C120.663 93.8052 121.563 93.6232 122.338 93.2592C123.113 92.8859 123.738 92.3679 124.214 91.7052C124.699 91.0332 125.007 90.2445 125.138 89.3392C125.231 88.8352 125.283 88.2892 125.292 87.7012C125.301 87.1132 125.306 86.6792 125.306 86.3992L126.006 86.8472C125.399 86.9219 124.671 87.0012 123.822 87.0852C122.982 87.1692 122.123 87.2719 121.246 87.3932C120.369 87.5145 119.575 87.6685 118.866 87.8552C118.427 87.9765 117.984 88.1539 117.536 88.3872C117.097 88.6112 116.729 88.9239 116.43 89.3252C116.141 89.7265 115.996 90.2352 115.996 90.8512C115.996 91.3085 116.108 91.7659 116.332 92.2232C116.565 92.6805 116.948 93.0585 117.48 93.3572C118.012 93.6559 118.731 93.8052 119.636 93.8052Z" fill="black"/>
<path fill-rule="evenodd" clip-rule="evenodd" d="M98.9266 70.9832L100.236 71.9145L105.603 74.3503L113.846 76.0701C113.846 76.0701 116.317 75.8275 117.5 74.5C119.374 72.3972 117.004 67.4693 117.004 67.4693L114.154 62.8796L110.5 59.4999L105.603 56.9999C105.603 56.9999 94 51.4999 85.4997 52.4999C85.0003 52.5587 79.9999 49 79.9999 49C87.8332 49.5 107.5 47.5 107.5 47.5L117.004 55.5C118.336 58.6667 123 65 131.5 64.5C140.376 62.281 131.132 54.1535 127.893 51.3054C127.482 50.9447 127.168 50.6686 127 50.5C121.5 43.8333 110.3 29.8 109.5 27C108.5 23.5 98.5 8.49997 94.5 6.99997C93.6162 5.89523 92.6022 4.95321 91.7169 4.13077C90.5988 3.09207 89.6861 2.2441 89.5001 1.49997C88.3333 0.83331 82.5999 0.399989 68.9999 3.99999C55.3999 7.59999 42 11.8333 37 13.5L1.5 13.0001L2.5 50C11.5 49.5 31.1001 49.2 37.5001 52C41.5001 53.75 44.6251 55.25 47.7501 56.75C50.8751 58.25 54.0001 59.75 58.0001 61.5C63.2363 63.7908 72.114 65.0107 79.6812 66.0504C83.6752 66.5992 87.3041 67.0978 89.8398 67.6773L97.1307 69.9035L98.9266 70.9832ZM78 21.5H82.5L83.5 23.5L82.5 25.5L80.5 26L77 25L76 23.5V22L78 21.5Z" fill="white"/>
<path d="M1 13.1853C12.4219 13.4845 35.7435 13.9101 37.6551 13.2184C38.108 13.0545 40.1594 12.3764 43.2098 11.4171M108.524 24.7609C100.589 9.85075 93.5949 6.65244 90.2592 1.91428C87.5558 -1.92576 56.252 7.31553 43.2098 11.4171M108.524 24.7609C114.872 36.6891 125.033 48.1345 129.321 52.3662C132.953 55.9215 140.024 63.4571 130.209 64.686C129.942 64.7194 129.664 64.7227 129.399 64.6823C126.496 64.2397 119.303 61.7481 117.4 55.8607M108.524 24.7609C109.058 26.7837 110.369 31.5947 111.347 34.6566C112.326 37.7184 109.507 44.4564 107.975 47.4426M117.4 55.8607C116.975 54.5482 116.745 53.1579 116.765 51.7206M117.4 55.8607C114.722 54.4362 107.975 47.4426 107.975 47.4426M107.975 47.4426C102.921 48.9107 87.9576 50.5235 80.1969 48.7916M80.1969 48.7916C80.9217 49.8985 85.8331 52.9568 88.0148 52.7728C89.5705 52.6415 101.077 54.37 105.81 57.1435M80.1969 48.7916C79.4127 48.5521 78.0457 47.6159 77.7079 45.6382M38.8936 52.2631C47.7181 58.6036 67.0328 64.8714 74.6648 65.1693C82.2652 65.466 91.7443 68.1833 95.893 69.2848C96.2823 69.3882 96.6471 69.5451 96.9923 69.7527C106.362 75.3882 121.662 80.2222 117.7 69.5417C115.304 63.0824 111.157 58.776 105.81 57.1435M38.8936 52.2631C36.1819 50.3147 34.4946 48.4952 34.4959 47.0592M38.8936 52.2631C33.7915 50.8352 19.3211 48.3772 2.25625 49.9684M43.2098 11.4171C41.2592 12.3416 37.2098 14.6766 36.6162 16.6209M103.684 24.0801C104.774 27.5605 106.907 35.1389 105.668 38.7746C105.506 39.2515 105.162 39.6374 104.758 39.938C97.9523 44.9966 88.2969 45.1982 79.5703 43.7966C78.3626 43.6026 77.502 44.4325 77.7079 45.6382M77.7079 45.6382C74.4877 42.0703 68.2825 32.8955 65.878 34.3825M65.878 34.3825C65.8114 34.4237 65.7478 34.473 65.6873 34.5308M65.878 34.3825C65.8133 34.433 65.7497 34.4824 65.6873 34.5308M65.878 34.3825C67.0053 33.5028 68.4668 32.303 69.9222 31.0082M65.6873 34.5308C63.4376 36.6779 58.1645 40.8953 55.07 40.5881M69.9222 31.0082C72.8831 28.3741 75.819 25.3469 75.8648 23.8225M69.9222 31.0082C71.8704 33.651 76.5699 38.9164 79.7831 38.8347C83.7146 38.7348 94.5926 39.2285 99.1208 33.266C99.3164 33.0086 99.4655 32.7183 99.5639 32.4104C100.857 28.3635 100.155 22.6109 98.8288 20.9646M75.8648 23.8225C75.882 23.2529 75.8962 22.5423 75.9079 21.7641M75.8648 23.8225C77.0312 24.6517 79.3267 25.9393 81.0782 25.9693M75.9079 21.7641C75.9438 19.3766 75.9561 16.3531 75.9575 14.8173M75.9079 21.7641L82.7161 21.3977M82.7161 21.3977L85.0852 19.7298M82.7161 21.3977C83.1328 22.0071 83.643 23.1703 83.4088 24.2292M81.0782 25.9693C81.6214 25.9786 82.1123 25.8669 82.5009 25.583C83.0251 25.2 83.2989 24.7261 83.4088 24.2292M81.0782 25.9693L80.976 28.837M83.4088 24.2292L87.9552 25.1229M105.81 57.1435C105.145 57.424 100.99 57.266 99.634 60.8372M44.6418 47.7661C48.834 48.249 61.3424 47.0202 63.7782 41.653M8.41142 45.4714L22.574 46.0761" stroke="black"/>
</svg>
