<svg width="54" height="22" viewBox="0 0 54 22" fill="none" xmlns="http://www.w3.org/2000/svg">
<path d="M0 11H46C50.4183 11 54 14.5817 54 19V20C54 21.1046 53.1046 22 52 22H8C3.58172 22 0 18.4183 0 14V11Z" fill="black"/>
<path d="M0 11V0H3.89861L7.88418 8.99589H8.37694L8.08708 9.26712V0H10.319V11H6.3914L2.40583 2.00411H1.91307L2.20293 1.73288V11H0Z" fill="black"/>
<path d="M11 11V0H14.8986L18.8842 8.99589H19.3769L19.0871 9.26712V0H21.319V11H17.3914L13.4058 2.00411H12.9131L13.2029 1.73288V11H11Z" fill="black"/>
<path fill-rule="evenodd" clip-rule="evenodd" d="M37.0672 22V15.5926H35.9877V13.6459H37.0672H39.4331V15.5926V22H37.0672ZM35.5718 22V10.6434H33.1911V14.8856C32.9459 14.4467 32.6354 14.105 32.2596 13.8604C31.7864 13.5415 31.2245 13.382 30.5739 13.382C30.0021 13.382 29.4846 13.503 29.0212 13.7449C28.5579 13.9759 28.1587 14.3058 27.8235 14.7348C27.4982 15.1527 27.2468 15.6421 27.0694 16.203C26.9018 16.764 26.818 17.3689 26.818 18.0178V18.3972C26.818 19.0461 26.9067 19.651 27.0841 20.2119C27.2714 20.7728 27.5376 21.2623 27.8826 21.6802C27.9788 21.7936 28.0796 21.9002 28.185 22H32.9693C33.1876 21.7547 33.3749 21.4666 33.5312 21.1358C33.5909 21.0138 33.6451 20.8867 33.6939 20.7545V22H35.5718ZM26.1743 22V13.6459H23.8084V18.9581C23.8084 19.464 23.6753 19.8655 23.4091 20.1624C23.143 20.4594 22.7979 20.6079 22.374 20.6079C21.96 20.6079 21.6298 20.4649 21.3833 20.1789C21.1369 19.893 21.0136 19.508 21.0136 19.0241V13.6459H18.6477V18.8921C18.6477 20.2559 18.8991 21.2788 19.4019 21.9607C19.4118 21.9739 19.4218 21.987 19.4319 22H23.7179C23.8855 21.7661 24.0241 21.489 24.1337 21.1688C24.1972 20.9884 24.2514 20.7953 24.2963 20.5894V22H26.1743ZM18.2693 22V20.5749H17.0715C16.6969 20.5749 16.4061 20.4649 16.1991 20.2449C16.0019 20.014 15.9034 19.684 15.9034 19.2551V15.5761H18.2693V13.6459H15.9034V11.2043H13.7001V13.6459H12.4728V15.5761H13.7001V19.1561C13.7001 20.069 13.8135 20.7948 14.0402 21.3338C14.1556 21.5911 14.3025 21.8132 14.4811 22H18.2693ZM11.6917 22C11.9719 21.7652 12.2076 21.4936 12.399 21.1853C12.7637 20.6024 12.9461 19.926 12.9461 19.1561C12.9461 18.4082 12.7736 17.7758 12.4286 17.2589C12.0934 16.731 11.6251 16.3185 11.0238 16.0216C10.4225 15.7136 9.72747 15.5212 8.93884 15.4442L8.11077 15.3617C7.61787 15.3177 7.26298 15.1692 7.04611 14.9162C6.82923 14.6633 6.7208 14.3663 6.7208 14.0254C6.7208 13.7614 6.77994 13.5195 6.89824 13.2995C7.01654 13.0685 7.19398 12.8871 7.43057 12.7551C7.67702 12.6231 7.97769 12.5571 8.33257 12.5571C8.70718 12.5571 9.0177 12.6341 9.26415 12.7881C9.52046 12.942 9.71269 13.1455 9.84084 13.3985C9.96899 13.6404 10.0331 13.9099 10.0331 14.2069H12.399C12.399 13.415 12.2363 12.7276 11.911 12.1447C11.5857 11.5508 11.1174 11.0943 10.5063 10.7754C9.90492 10.4454 9.18036 10.2805 8.33257 10.2805C7.52422 10.2805 6.82431 10.4344 6.23283 10.7424C5.64135 11.0393 5.17803 11.4683 4.84286 12.0292C4.51754 12.5901 4.35489 13.2555 4.35489 14.0254C4.35489 15.0922 4.67527 15.9501 5.31604 16.599C5.9568 17.2479 6.81445 17.6218 7.88896 17.7208L8.70225 17.8033C9.36273 17.8693 9.84084 18.0178 10.1366 18.2487C10.4323 18.4687 10.5802 18.7711 10.5802 19.1561C10.5802 19.464 10.5013 19.739 10.3436 19.981C10.1859 20.2119 9.95421 20.3934 9.64861 20.5254C9.34301 20.6574 8.96348 20.7234 8.51002 20.7234C8.00726 20.7234 7.59816 20.6464 7.2827 20.4924C6.96725 20.3274 6.73065 20.1129 6.57293 19.849C6.42506 19.585 6.35112 19.2991 6.35112 18.9911H4C4 19.772 4.17251 20.4649 4.51754 21.0698C4.72247 21.4225 4.98477 21.7326 5.30446 22H11.6917ZM47.4438 22C47.5822 21.8805 47.7116 21.7519 47.8318 21.6142C48.2163 21.1853 48.5071 20.6959 48.7043 20.1459C48.9014 19.585 49 18.9966 49 18.3807V18.0013C49 17.3744 48.8965 16.7805 48.6895 16.2195C48.4825 15.6476 48.1867 15.1472 47.8023 14.7183C47.4178 14.2893 46.9495 13.9539 46.3975 13.7119C45.8553 13.459 45.2343 13.3325 44.5343 13.3325C43.8541 13.3325 43.238 13.459 42.686 13.7119C42.1339 13.9539 41.6607 14.2893 41.2664 14.7183C40.882 15.1472 40.5862 15.6476 40.3792 16.2195C40.1821 16.7805 40.0835 17.3744 40.0835 18.0013V18.3807C40.0835 18.9966 40.1821 19.585 40.3792 20.1459C40.5764 20.6959 40.8623 21.1853 41.2369 21.6142C41.3602 21.7519 41.4923 21.8805 41.6329 22H47.4438ZM37.984 12.7551C37.5404 12.7551 37.2101 12.6286 36.9932 12.3756C36.7862 12.1117 36.6827 11.7817 36.6827 11.3858C36.6827 10.9788 36.7862 10.6489 36.9932 10.3959C37.2101 10.132 37.5404 10 37.984 10C38.4276 10 38.7529 10.132 38.9599 10.3959C39.1768 10.6489 39.2852 10.9788 39.2852 11.3858C39.2852 11.7817 39.1768 12.1117 38.9599 12.3756C38.7529 12.6286 38.4276 12.7551 37.984 12.7551ZM32.2448 20.5089C31.949 20.6849 31.6188 20.7728 31.2541 20.7728C30.8597 20.7728 30.5049 20.6684 30.1894 20.4594C29.8739 20.2504 29.6275 19.9535 29.4501 19.5685C29.2726 19.1836 29.1839 18.7272 29.1839 18.1992C29.1839 17.6823 29.2726 17.2314 29.4501 16.8464C29.6275 16.4505 29.869 16.1426 30.1746 15.9226C30.4901 15.6916 30.845 15.5761 31.2393 15.5761C31.5942 15.5761 31.9244 15.6641 32.23 15.8401C32.5356 16.0161 32.782 16.269 32.9693 16.599C33.1566 16.9289 33.2503 17.3359 33.2503 17.8198V18.4302C33.2503 18.9251 33.1566 19.3486 32.9693 19.7005C32.7919 20.0525 32.5504 20.3219 32.2448 20.5089ZM45.6877 20.4429C45.3821 20.6629 44.9977 20.7728 44.5343 20.7728C44.0907 20.7728 43.7112 20.6629 43.3957 20.4429C43.0803 20.2229 42.8437 19.915 42.686 19.519C42.5282 19.1231 42.4494 18.6832 42.4494 18.1992C42.4494 17.6823 42.5282 17.2314 42.686 16.8464C42.8536 16.4505 43.0951 16.1371 43.4105 15.9061C43.726 15.6751 44.1006 15.5596 44.5343 15.5596C44.978 15.5596 45.3526 15.6751 45.6581 15.9061C45.9736 16.1371 46.2151 16.4505 46.3827 16.8464C46.5503 17.2314 46.6341 17.6823 46.6341 18.1992C46.6341 18.6832 46.5503 19.1231 46.3827 19.519C46.225 19.915 45.9933 20.2229 45.6877 20.4429Z" fill="white"/>
<rect x="50" y="18" width="3.69829" height="3.69829" rx="1.84914" fill="#DA3D28"/>
</svg>
